<svg width="39" height="37" viewBox="0 0 39 37" fill="none" xmlns="http://www.w3.org/2000/svg">
<path d="M14.555 8.59237C14.3446 8.03453 14.2296 7.43238 14.2296 6.80509C14.2296 3.91831 16.6542 1.57812 19.6451 1.57812C22.6361 1.57812 25.0607 3.91831 25.0607 6.80509C25.0607 7.65069 24.8513 8.45227 24.4801 9.16105C25.0143 9.19671 25.5333 9.42898 25.9116 9.84636C27.9675 12.1141 29.7666 15.3475 29.7666 19.0953C29.7666 21.7746 28.8109 23.7601 27.5194 25.1907L29.9723 25.6059C30.9738 25.7754 31.7043 26.615 31.7043 27.5964V31.3854C31.7043 31.9214 31.4837 32.4354 31.0911 32.8144C30.6984 33.1933 30.1659 33.4063 29.6106 33.4063L9.67969 33.4063C8.52334 33.4063 7.58594 32.5015 7.58594 31.3854V27.5964C7.58594 26.6161 8.31484 25.7772 9.31495 25.6064L11.5276 25.2286C10.2185 23.7954 9.24684 21.7988 9.24684 19.0953C9.24684 16.1712 10.4209 13.6248 11.7978 11.6732C12.6633 10.4466 13.6432 9.40519 14.555 8.59237Z" fill="#F4F7FA"/>
<path d="M20.6719 18.828H18.5781C18.5781 15.1173 19.7442 11.4129 22.3239 8.70131C22.7281 8.17023 22.9669 7.51453 22.9669 6.80501C22.9669 5.0343 21.4797 3.59888 19.6451 3.59888C17.8105 3.59888 16.3233 5.0343 16.3233 6.80501C16.3233 7.67862 16.6854 8.47063 17.2725 9.0489C15.1975 10.4767 11.3406 14.3037 11.3406 19.0952C11.3406 23.9306 15.2685 25.8883 17.3291 26.2902L9.67969 27.5963V31.3853L29.6106 31.3853V27.5963L21.7797 26.2707C23.8636 25.828 27.6729 23.857 27.6729 19.0952C27.6729 15.9772 26.168 13.1978 24.3359 11.177C22.3239 12.6926 20.6719 16.2291 20.6719 18.828Z" fill="#34364C"/>
</svg>
