<svg width="38" height="37" viewBox="0 0 38 37" fill="none" xmlns="http://www.w3.org/2000/svg">
<g clip-path="url(#clip0_631_2922)">
<path fill-rule="evenodd" clip-rule="evenodd" d="M15.9856 2.02021C16.0209 0.929245 16.9474 0.0625 18.0783 0.0625H21.2189C22.3498 0.0625 23.2763 0.929245 23.3116 2.02021L23.33 2.58854H24.3595C25.5159 2.58854 26.4533 3.4933 26.4533 4.60937V5.83504C28.7356 5.33656 31.1989 5.66953 33.2898 7.3512C37.6333 10.8448 37.2337 18.1682 32.0788 22.1739C30.8348 23.1406 29.8575 23.9419 29.1845 24.7677C29.031 24.9561 28.8994 25.1383 28.7887 25.3168L30.9107 25.5938C31.9491 25.7293 32.7238 26.585 32.7238 27.5964V31.3854C32.7238 32.5015 31.7864 33.4062 30.63 33.4062H8.66716C7.51082 33.4062 6.57341 32.5015 6.57341 31.3854V27.5964C6.57341 26.585 7.3481 25.7293 8.38654 25.5938L10.5085 25.3168C10.3978 25.1383 10.2662 24.9561 10.1127 24.7677C9.43973 23.9419 8.46244 23.1405 7.21843 22.1739C2.06352 18.1682 1.66385 10.8448 6.00743 7.3512C8.09825 5.66953 10.5616 5.33656 12.8439 5.83504V4.60937C12.8439 3.4933 13.7813 2.58854 14.9377 2.58854H15.9672L15.9856 2.02021Z" fill="#F4F7FA"/>
<path fill-rule="evenodd" clip-rule="evenodd" d="M18.0777 2.08325H21.2183L21.3001 4.60929H24.359V7.64054H21.3983L21.5421 11.0724C21.5995 11.0072 21.6586 10.9432 21.7195 10.8807C24.5791 7.94725 28.819 6.38622 31.9488 8.90356C35.0894 11.4296 35.0894 17.2395 30.7652 20.5997C28.3156 22.5032 26.1216 24.3381 26.2297 27.0219L30.6295 27.5963V31.3853H8.6666V27.5963L13.0664 27.0219C13.1745 24.3381 10.9804 22.5032 8.53089 20.5997C4.20663 17.2395 4.20663 11.4296 7.34725 8.90356C10.4771 6.38622 14.7169 7.94725 17.5766 10.8807C17.6375 10.9432 17.6966 11.0072 17.754 11.0724L17.8978 7.64054H14.9371V4.60929H17.9959L18.0777 2.08325ZM15.1193 13.6895C17.0385 16.7237 17.2926 20.2708 17.2926 21.8133C16.3306 21.8149 12.704 20.275 10.784 17.7471C9.40165 15.9271 9.04121 13.2269 10.2262 12.1786C11.4111 11.1303 13.9197 11.7931 15.1193 13.6895ZM24.1768 13.6895C22.2575 16.7237 22.0035 20.2708 22.0035 21.8133C22.9655 21.8149 26.5921 20.275 28.5121 17.7471C29.8944 15.9271 30.2549 13.2269 29.0699 12.1786C27.885 11.1303 25.3764 11.7931 24.1768 13.6895Z" fill="#34364C"/>
</g>
<defs>
<clipPath id="clip0_631_2922">
<rect width="37.6875" height="36.375" fill="white" transform="translate(0.28125 0.0625)"/>
</clipPath>
</defs>
</svg>
