<svg width="39" height="37" viewBox="0 0 39 37" fill="none" xmlns="http://www.w3.org/2000/svg">
<path d="M16.0723 0.318584C16.7615 0.243786 17.4444 0.503235 17.8958 1.01141L22.1675 5.82022C27.0732 6.99028 29.9155 10.5556 31.4875 15.0063C33.1074 19.5925 33.5081 25.4148 33.5081 31.3854C33.5081 32.5014 32.5707 33.4062 31.4144 33.4062H11.8927C10.7812 33.4062 9.86336 32.5679 9.80215 31.4966C9.74752 30.5407 9.9754 28.882 10.6698 27.1878L10.6826 27.1568C8.71064 28.1784 6.5222 27.9337 4.89761 26.8173C2.92328 25.4606 1.8255 22.8046 3.07973 20.1818C3.98417 18.2904 4.95896 17.2888 5.69637 16.5314C6.38519 15.8238 6.67224 15.5126 6.87532 14.7286C8.10657 9.9751 10.6396 7.23677 13.3599 5.98708C13.3205 5.44555 13.3525 4.92382 13.4214 4.45014C13.5927 3.27108 14.0191 2.1815 14.4538 1.38497C14.777 0.792721 15.3831 0.393383 16.0723 0.318584Z" fill="#F4F7FA"/>
<path fill-rule="evenodd" clip-rule="evenodd" d="M21.0349 7.65008L16.3062 2.3269C15.6217 3.58113 14.9581 5.79475 15.9122 7.39276C15.4491 7.43255 15.0066 7.50815 14.6643 7.64073C12.4804 8.4866 10.0842 10.672 8.90646 15.2189C8.56543 16.5355 7.95164 17.1659 7.22214 17.9153C6.53401 18.6221 5.74292 19.4347 4.98068 21.0288C3.41037 24.3126 7.64828 27.5965 10.7385 24.6139C12.4758 22.937 13.9945 22.2448 15.2695 21.6636C17.1045 20.8271 18.4349 20.2206 19.1864 17.2397C19.544 18.6302 19.401 21.9117 15.9686 23.914C12.5362 25.9163 11.8211 30.1341 11.8926 31.3855H31.4143C31.4143 19.5046 29.7845 9.23962 21.0349 7.65008Z" fill="#34364C"/>
<ellipse cx="15.1875" cy="13.7031" rx="1.57031" ry="1.51562" fill="#F4F7FA"/>
</svg>
