<svg width="39" height="37" viewBox="0 0 39 37" fill="none" xmlns="http://www.w3.org/2000/svg">
<path d="M12.6266 21.3402C12.3768 21.6693 12.0787 22.0121 11.7313 22.3647C10.5051 23.609 9.00128 24.6328 8.03072 25.1681L7.86745 25.2581C7.2151 25.6179 6.8125 26.2875 6.8125 27.0127V31.8854C6.8125 33.0015 7.7499 33.9062 8.90625 33.9062H29.3203C30.4767 33.9062 31.4141 33.0015 31.4141 31.8854V27.0127C31.4141 26.2875 31.0115 25.6179 30.3591 25.2581L30.1958 25.1681C29.2253 24.6328 27.7215 23.609 26.4953 22.3647C26.1478 22.0121 25.8498 21.6693 25.6 21.3402C26.5189 21.1266 27.2016 20.328 27.2016 19.3755V16.086C27.2016 15.4293 26.8711 14.8137 26.3153 14.435L25.4261 13.8292C25.9392 12.8669 26.2295 11.775 26.2295 10.6186C26.2295 6.73886 22.9709 3.59375 18.9513 3.59375C14.9316 3.59375 11.673 6.73886 11.673 10.6186C11.673 11.84 11.9968 12.9892 12.5648 13.9897L11.9112 14.435C11.3555 14.8137 11.0249 15.4293 11.0249 16.086V19.3755C11.0249 20.328 11.7077 21.1266 12.6266 21.3402Z" fill="#F4F7FA"/>
<path d="M24.1358 10.6185C24.1358 12.0698 23.4957 13.3768 22.4731 14.2908L25.1079 16.0859V19.3754H22.5285C22.6529 20.9002 23.6665 22.4262 24.9781 23.7573C26.3701 25.1699 28.0449 26.3092 29.157 26.9226L29.3203 27.0126V31.8853H8.90625V27.0126L9.06952 26.9226C10.1817 26.3092 11.8564 25.1699 13.2484 23.7573C14.5601 22.4262 15.5737 20.9002 15.6981 19.3754H13.1187V16.0859L15.5726 14.414C14.4669 13.4963 13.7667 12.1363 13.7667 10.6185C13.7667 7.85486 16.0879 5.6145 18.9513 5.6145C21.8146 5.6145 24.1358 7.85486 24.1358 10.6185Z" fill="#34364C"/>
</svg>
