<svg width="38" height="37" viewBox="0 0 38 37" fill="none" xmlns="http://www.w3.org/2000/svg">
<path d="M9.45312 5.1145C9.45312 5.61332 9.53626 6.09325 9.6899 6.54214L8.65639 7.01006C7.7996 6.15287 6.59712 5.61972 5.26562 5.61972C2.66385 5.61972 0.554688 7.65542 0.554688 10.1666C0.554688 12.4051 2.23063 14.2657 4.4375 14.6434L6.91969 22.8574C6.9715 23.0289 7.04664 23.193 7.14313 23.3454L8.57374 25.6048L8.56495 25.6063C7.56484 25.7771 6.83594 26.616 6.83594 27.5963V31.3853C6.83594 32.5014 7.77334 33.4062 8.92969 33.4062L28.8606 33.4062C29.4159 33.4062 29.9484 33.1933 30.3411 32.8143C30.7337 32.4353 30.9543 31.9213 30.9543 31.3853V27.5963C30.9543 26.6149 30.2238 25.7754 29.2223 25.6058L29.1801 25.5987L30.6069 23.3454C30.7034 23.193 30.7785 23.0289 30.8303 22.8574L33.3125 14.6434C35.5194 14.2657 37.1953 12.4051 37.1953 10.1666C37.1953 7.65542 35.0862 5.61972 32.4844 5.61972C31.1512 5.61972 29.9474 6.15422 29.0904 7.0133L28.0587 6.54621C28.2132 6.09615 28.2969 5.61482 28.2969 5.1145C28.2969 2.60333 26.1877 0.567627 23.5859 0.567627C20.9842 0.567627 18.875 2.60333 18.875 5.1145C18.875 2.60333 16.7658 0.567627 14.1641 0.567627C11.5623 0.567627 9.45312 2.60333 9.45312 5.1145Z" fill="#F4F7FA"/>
<path d="M15.1035 7.47308C16.0848 7.1087 16.7812 6.19018 16.7812 5.11466C16.7812 3.71957 15.6095 2.58862 14.1641 2.58862C12.7186 2.58862 11.5469 3.71957 11.5469 5.11466C11.5469 6.40388 12.5475 7.46752 13.8401 7.62154L12.6729 16.7345L7.04646 12.0179C7.56093 11.5566 7.88281 10.898 7.88281 10.1668C7.88281 8.77166 6.71106 7.64071 5.26562 7.64071C3.82019 7.64071 2.64844 8.77166 2.64844 10.1668C2.64844 11.5618 3.82019 12.6928 5.26562 12.6928C5.52007 12.6928 5.76604 12.6577 5.99863 12.5924L8.92969 22.2918L11.9607 27.0789L8.92969 27.5964V31.3855L28.8606 31.3855V27.5964L25.7906 27.0768L28.8203 22.2918L31.7514 12.5924C31.984 12.6577 32.2299 12.6928 32.4844 12.6928C33.9298 12.6928 35.1016 11.5618 35.1016 10.1668C35.1016 8.77166 33.9298 7.64071 32.4844 7.64071C31.0389 7.64071 29.8672 8.77166 29.8672 10.1668C29.8672 10.898 30.1891 11.5566 30.7035 12.0179L25.0771 16.7345L23.9099 7.62154C25.2025 7.46752 26.2031 6.40388 26.2031 5.11466C26.2031 3.71957 25.0314 2.58862 23.5859 2.58862C22.1405 2.58862 20.9688 3.71957 20.9688 5.11466C20.9688 6.19018 21.6652 7.1087 22.6465 7.47308L18.875 15.724L15.1035 7.47308Z" fill="#34364C"/>
</svg>
