<svg width="38" height="37" viewBox="0 0 38 37" fill="none" xmlns="http://www.w3.org/2000/svg">
<path d="M13.8906 2.58862C14.272 2.58862 14.6295 2.68703 14.9375 2.85898C15.2455 2.68703 15.603 2.58862 15.9844 2.58862H21.7422C22.1236 2.58862 22.4811 2.68703 22.7891 2.85898C23.097 2.68703 23.4546 2.58862 23.8359 2.58862H29.0703C30.2267 2.58862 31.1641 3.49338 31.1641 4.60946V9.15633C31.1641 9.7924 30.8538 10.3914 30.3266 10.773L27.0958 13.1117L28.0106 21.0582C28.2528 23.162 29.2674 24.2294 30.7453 26.1313C31.0171 26.4811 31.1641 26.9066 31.1641 27.3438V31.3855C31.1641 32.5016 30.2267 33.4063 29.0703 33.4063H8.65625C7.4999 33.4063 6.5625 32.5016 6.5625 31.3855V27.3438C6.5625 26.9066 6.70943 26.4811 6.98125 26.1313C8.45918 24.2294 9.47374 23.162 9.71593 21.0582L10.6307 13.1117L7.4 10.773C6.87278 10.3914 6.5625 9.7924 6.5625 9.15633V4.60946C6.5625 3.49338 7.4999 2.58862 8.65625 2.58862H13.8906Z" fill="#F4F7FA"/>
<path d="M8.65625 4.60938H13.8906V7.64062H15.9844V4.60938H21.7422V7.64062H23.8359V4.60938H29.0703V9.15625L24.8828 12.1875L25.9297 21.2812H11.7969L12.8438 12.1875L8.65625 9.15625V4.60938Z" fill="#34364C"/>
<path d="M11.7969 23.3021H25.9297L29.0703 27.3438V31.3854H8.65625V27.3437L11.7969 23.3021Z" fill="#34364C"/>
</svg>
