<svg width="39" height="37" viewBox="0 0 39 37" fill="none" xmlns="http://www.w3.org/2000/svg">
<path d="M14.555 9.09237C14.3446 8.53453 14.2296 7.93238 14.2296 7.30509C14.2296 4.41831 16.6542 2.07812 19.6451 2.07812C22.6361 2.07812 25.0607 4.41831 25.0607 7.30509C25.0607 8.15069 24.8513 8.95227 24.4801 9.66105C25.0143 9.69671 25.5333 9.92898 25.9116 10.3464C27.9675 12.6141 29.7666 15.8475 29.7666 19.5953C29.7666 22.2746 28.8109 24.2601 27.5194 25.6907L29.9723 26.1059C30.9738 26.2754 31.7043 27.115 31.7043 28.0964V31.8854C31.7043 32.4214 31.4837 32.9354 31.0911 33.3144C30.6984 33.6933 30.1659 33.9063 29.6106 33.9063L9.67969 33.9063C8.52334 33.9063 7.58594 33.0015 7.58594 31.8854V28.0964C7.58594 27.1161 8.31484 26.2772 9.31495 26.1064L11.5276 25.7286C10.2185 24.2954 9.24684 22.2988 9.24684 19.5953C9.24684 16.6712 10.4209 14.1248 11.7978 12.1732C12.6633 10.9466 13.6432 9.90519 14.555 9.09237Z" fill="#34364C"/>
<path d="M20.6719 19.328H18.5781C18.5781 15.6173 19.7442 11.9129 22.3239 9.20131C22.7281 8.67023 22.9669 8.01453 22.9669 7.30501C22.9669 5.5343 21.4797 4.09888 19.6451 4.09888C17.8105 4.09888 16.3233 5.5343 16.3233 7.30501C16.3233 8.17862 16.6854 8.97063 17.2725 9.5489C15.1975 10.9767 11.3406 14.8037 11.3406 19.5952C11.3406 24.4306 15.2685 26.3883 17.3291 26.7902L9.67969 28.0963V31.8853L29.6106 31.8853V28.0963L21.7797 26.7707C23.8636 26.328 27.6729 24.357 27.6729 19.5952C27.6729 16.4772 26.168 13.6978 24.3359 11.677C22.3239 13.1926 20.6719 16.7291 20.6719 19.328Z" fill="#F4F7FA"/>
</svg>
