<svg width="38" height="37" viewBox="0 0 38 37" fill="none" xmlns="http://www.w3.org/2000/svg">
<g clip-path="url(#clip0_631_2907)">
<path fill-rule="evenodd" clip-rule="evenodd" d="M15.9856 2.52021C16.0209 1.42925 16.9474 0.5625 18.0783 0.5625H21.2189C22.3498 0.5625 23.2763 1.42925 23.3116 2.52021L23.33 3.08854H24.3595C25.5159 3.08854 26.4533 3.9933 26.4533 5.10937V6.33504C28.7356 5.83656 31.1989 6.16953 33.2898 7.8512C37.6333 11.3448 37.2337 18.6682 32.0788 22.6739C30.8348 23.6406 29.8575 24.4419 29.1845 25.2677C29.031 25.4561 28.8994 25.6383 28.7887 25.8168L30.9107 26.0938C31.9491 26.2293 32.7238 27.085 32.7238 28.0964V31.8854C32.7238 33.0015 31.7864 33.9062 30.63 33.9062H8.66716C7.51082 33.9062 6.57341 33.0015 6.57341 31.8854V28.0964C6.57341 27.085 7.3481 26.2293 8.38654 26.0938L10.5085 25.8168C10.3978 25.6383 10.2662 25.4561 10.1127 25.2677C9.43973 24.4419 8.46244 23.6405 7.21843 22.6739C2.06352 18.6682 1.66385 11.3448 6.00743 7.8512C8.09825 6.16953 10.5616 5.83656 12.8439 6.33504V5.10937C12.8439 3.9933 13.7813 3.08854 14.9377 3.08854H15.9672L15.9856 2.52021Z" fill="#34364C"/>
<path fill-rule="evenodd" clip-rule="evenodd" d="M18.0777 2.58325H21.2183L21.3001 5.10929H24.359V8.14054H21.3983L21.5421 11.5724C21.5995 11.5072 21.6586 11.4432 21.7195 11.3807C24.5791 8.44725 28.819 6.88622 31.9488 9.40356C35.0894 11.9296 35.0894 17.7395 30.7652 21.0997C28.3156 23.0032 26.1216 24.8381 26.2297 27.5219L30.6295 28.0963V31.8853H8.6666V28.0963L13.0664 27.5219C13.1745 24.8381 10.9804 23.0032 8.53089 21.0997C4.20663 17.7395 4.20663 11.9296 7.34725 9.40356C10.4771 6.88622 14.7169 8.44725 17.5766 11.3807C17.6375 11.4432 17.6966 11.5072 17.754 11.5724L17.8978 8.14054H14.9371V5.10929H17.9959L18.0777 2.58325ZM15.1193 14.1895C17.0385 17.2237 17.2926 20.7708 17.2926 22.3133C16.3306 22.3149 12.704 20.775 10.784 18.2471C9.40165 16.4271 9.04121 13.7269 10.2262 12.6786C11.4111 11.6303 13.9197 12.2931 15.1193 14.1895ZM24.1768 14.1895C22.2575 17.2237 22.0035 20.7708 22.0035 22.3133C22.9655 22.3149 26.5921 20.775 28.5121 18.2471C29.8944 16.4271 30.2549 13.7269 29.0699 12.6786C27.885 11.6303 25.3764 12.2931 24.1768 14.1895Z" fill="#F4F7FA"/>
</g>
<defs>
<clipPath id="clip0_631_2907">
<rect width="37.6875" height="36.375" fill="white" transform="translate(0.28125 0.5625)"/>
</clipPath>
</defs>
</svg>
