<svg width="39" height="37" viewBox="0 0 39 37" fill="none" xmlns="http://www.w3.org/2000/svg">
<path d="M16.0723 0.818584C16.7615 0.743786 17.4444 1.00324 17.8958 1.51141L22.1675 6.32022C27.0732 7.49028 29.9155 11.0556 31.4875 15.5063C33.1074 20.0925 33.5081 25.9148 33.5081 31.8854C33.5081 33.0014 32.5707 33.9062 31.4144 33.9062H11.8927C10.7812 33.9062 9.86336 33.0679 9.80215 31.9966C9.74752 31.0407 9.9754 29.382 10.6698 27.6878L10.6826 27.6568C8.71064 28.6784 6.5222 28.4337 4.89761 27.3173C2.92328 25.9606 1.8255 23.3046 3.07973 20.6818C3.98417 18.7904 4.95896 17.7888 5.69637 17.0314C6.38519 16.3238 6.67224 16.0126 6.87532 15.2286C8.10657 10.4751 10.6396 7.73677 13.3599 6.48708C13.3205 5.94555 13.3525 5.42382 13.4214 4.95014C13.5927 3.77108 14.0191 2.6815 14.4538 1.88497C14.777 1.29272 15.3831 0.893383 16.0723 0.818584Z" fill="#34364C"/>
<path fill-rule="evenodd" clip-rule="evenodd" d="M21.0349 8.15008L16.3062 2.8269C15.6217 4.08113 14.9581 6.29475 15.9122 7.89276C15.4491 7.93255 15.0066 8.00815 14.6643 8.14073C12.4804 8.9866 10.0842 11.172 8.90646 15.7189C8.56543 17.0355 7.95164 17.6659 7.22214 18.4153C6.53401 19.1221 5.74292 19.9347 4.98068 21.5288C3.41037 24.8126 7.64828 28.0965 10.7385 25.1139C12.4758 23.437 13.9945 22.7448 15.2695 22.1636C17.1045 21.3271 18.4349 20.7206 19.1864 17.7397C19.544 19.1302 19.401 22.4117 15.9686 24.414C12.5362 26.4163 11.8211 30.6341 11.8926 31.8855H31.4143C31.4143 20.0046 29.7845 9.73962 21.0349 8.15008Z" fill="#F4F7FA"/>
<ellipse cx="15.1875" cy="14.2031" rx="1.57031" ry="1.51562" fill="#34364C"/>
</svg>
