<svg width="38" height="37" viewBox="0 0 38 37" fill="none" xmlns="http://www.w3.org/2000/svg">
<path d="M12.3766 20.8402C12.1268 21.1693 11.8287 21.5121 11.4813 21.8647C10.2551 23.109 8.75128 24.1328 7.78072 24.6681L7.61745 24.7581C6.9651 25.1179 6.5625 25.7875 6.5625 26.5127V31.3854C6.5625 32.5015 7.4999 33.4062 8.65625 33.4062H29.0703C30.2267 33.4062 31.1641 32.5015 31.1641 31.3854V26.5127C31.1641 25.7875 30.7615 25.1179 30.1091 24.7581L29.9458 24.6681C28.9753 24.1328 27.4715 23.109 26.2453 21.8647C25.8978 21.5121 25.5998 21.1693 25.35 20.8402C26.2689 20.6266 26.9516 19.828 26.9516 18.8755V15.586C26.9516 14.9293 26.6211 14.3137 26.0653 13.935L25.1761 13.3292C25.6892 12.3669 25.9795 11.275 25.9795 10.1186C25.9795 6.23886 22.7209 3.09375 18.7013 3.09375C14.6816 3.09375 11.423 6.23886 11.423 10.1186C11.423 11.34 11.7468 12.4892 12.3148 13.4897L11.6612 13.935C11.1055 14.3137 10.7749 14.9293 10.7749 15.586V18.8755C10.7749 19.828 11.4577 20.6266 12.3766 20.8402Z" fill="#34364C"/>
<path d="M23.8858 10.1185C23.8858 11.5698 23.2457 12.8768 22.2231 13.7908L24.8579 15.5859V18.8754H22.2785C22.4029 20.4002 23.4165 21.9262 24.7281 23.2573C26.1201 24.6699 27.7949 25.8092 28.907 26.4226L29.0703 26.5126V31.3853H8.65625V26.5126L8.81952 26.4226C9.93171 25.8092 11.6064 24.6699 12.9984 23.2573C14.3101 21.9262 15.3237 20.4002 15.4481 18.8754H12.8687V15.5859L15.3226 13.914C14.2169 12.9963 13.5167 11.6363 13.5167 10.1185C13.5167 7.35486 15.8379 5.1145 18.7013 5.1145C21.5646 5.1145 23.8858 7.35486 23.8858 10.1185Z" fill="#F4F7FA"/>
</svg>
