<svg width="38" height="37" viewBox="0 0 38 37" fill="none" xmlns="http://www.w3.org/2000/svg">
<path d="M9.45312 5.6145C9.45312 6.11332 9.53626 6.59325 9.6899 7.04214L8.65639 7.51006C7.7996 6.65287 6.59712 6.11972 5.26562 6.11972C2.66385 6.11972 0.554688 8.15542 0.554688 10.6666C0.554688 12.9051 2.23063 14.7657 4.4375 15.1434L6.91969 23.3574C6.9715 23.5289 7.04664 23.693 7.14313 23.8454L8.57374 26.1048L8.56495 26.1063C7.56484 26.2771 6.83594 27.116 6.83594 28.0963V31.8853C6.83594 33.0014 7.77334 33.9062 8.92969 33.9062L28.8606 33.9062C29.4159 33.9062 29.9484 33.6933 30.3411 33.3143C30.7337 32.9353 30.9543 32.4213 30.9543 31.8853V28.0963C30.9543 27.1149 30.2238 26.2754 29.2223 26.1058L29.1801 26.0987L30.6069 23.8454C30.7034 23.693 30.7785 23.5289 30.8303 23.3574L33.3125 15.1434C35.5194 14.7657 37.1953 12.9051 37.1953 10.6666C37.1953 8.15542 35.0862 6.11972 32.4844 6.11972C31.1512 6.11972 29.9474 6.65422 29.0904 7.5133L28.0587 7.04621C28.2132 6.59615 28.2969 6.11482 28.2969 5.6145C28.2969 3.10333 26.1877 1.06763 23.5859 1.06763C20.9842 1.06763 18.875 3.10333 18.875 5.6145C18.875 3.10333 16.7658 1.06763 14.1641 1.06763C11.5623 1.06763 9.45312 3.10333 9.45312 5.6145Z" fill="#34364C"/>
<path d="M15.1035 7.97308C16.0848 7.6087 16.7812 6.69018 16.7812 5.61466C16.7812 4.21957 15.6095 3.08862 14.1641 3.08862C12.7186 3.08862 11.5469 4.21957 11.5469 5.61466C11.5469 6.90388 12.5475 7.96752 13.8401 8.12154L12.6729 17.2345L7.04646 12.5179C7.56093 12.0566 7.88281 11.398 7.88281 10.6668C7.88281 9.27166 6.71106 8.14071 5.26562 8.14071C3.82019 8.14071 2.64844 9.27166 2.64844 10.6668C2.64844 12.0618 3.82019 13.1928 5.26562 13.1928C5.52007 13.1928 5.76604 13.1577 5.99863 13.0924L8.92969 22.7918L11.9607 27.5789L8.92969 28.0964V31.8855L28.8606 31.8855V28.0964L25.7906 27.5768L28.8203 22.7918L31.7514 13.0924C31.984 13.1577 32.2299 13.1928 32.4844 13.1928C33.9298 13.1928 35.1016 12.0618 35.1016 10.6668C35.1016 9.27166 33.9298 8.14071 32.4844 8.14071C31.0389 8.14071 29.8672 9.27166 29.8672 10.6668C29.8672 11.398 30.1891 12.0566 30.7035 12.5179L25.0771 17.2345L23.9099 8.12154C25.2025 7.96752 26.2031 6.90388 26.2031 5.61466C26.2031 4.21957 25.0314 3.08862 23.5859 3.08862C22.1405 3.08862 20.9688 4.21957 20.9688 5.61466C20.9688 6.69018 21.6652 7.6087 22.6465 7.97308L18.875 16.224L15.1035 7.97308Z" fill="#F4F7FA"/>
</svg>
