<svg width="38" height="37" viewBox="0 0 38 37" fill="none" xmlns="http://www.w3.org/2000/svg">
<path d="M13.8906 3.08862C14.272 3.08862 14.6295 3.18703 14.9375 3.35898C15.2455 3.18703 15.603 3.08862 15.9844 3.08862H21.7422C22.1236 3.08862 22.4811 3.18703 22.7891 3.35898C23.097 3.18703 23.4546 3.08862 23.8359 3.08862H29.0703C30.2267 3.08862 31.1641 3.99338 31.1641 5.10946V9.65633C31.1641 10.2924 30.8538 10.8914 30.3266 11.273L27.0958 13.6117L28.0106 21.5582C28.2528 23.662 29.2674 24.7294 30.7453 26.6313C31.0171 26.9811 31.1641 27.4066 31.1641 27.8438V31.8855C31.1641 33.0016 30.2267 33.9063 29.0703 33.9063H8.65625C7.4999 33.9063 6.5625 33.0016 6.5625 31.8855V27.8438C6.5625 27.4066 6.70943 26.9811 6.98125 26.6313C8.45918 24.7294 9.47374 23.662 9.71593 21.5582L10.6307 13.6117L7.4 11.273C6.87278 10.8914 6.5625 10.2924 6.5625 9.65633V5.10946C6.5625 3.99338 7.4999 3.08862 8.65625 3.08862H13.8906Z" fill="#34364C"/>
<path d="M8.65625 5.10938H13.8906V8.14062H15.9844V5.10938H21.7422V8.14062H23.8359V5.10938H29.0703V9.65625L24.8828 12.6875L25.9297 21.7812H11.7969L12.8438 12.6875L8.65625 9.65625V5.10938Z" fill="#F4F7FA"/>
<path d="M11.7969 23.8021H25.9297L29.0703 27.8438V31.8854H8.65625V27.8437L11.7969 23.8021Z" fill="#F4F7FA"/>
</svg>
